<?xml version="1.0" encoding="UTF-8"?>
<svg xmlns="http://www.w3.org/2000/svg" width="1920" height="1080" viewBox="0 0 1920 1080">
  <rect width="1920" height="1080" fill="#000"/>
  <g fill="#fff">
    <path d="M 1028.80,635.40 L 1057.60,619.20 L 1083.20,595.80 L 1099.20,568.80 L 1094.40,557.10 L 1040.00,544.50 L 944.00,539.10 L 876.80,544.50 L 828.80,555.30 L 817.60,561.60 L 827.20,586.80 L 846.40,608.40 L 892.80,636.30 L 868.80,617.40 L 868.80,608.40 L 889.60,596.70 L 937.60,587.70 L 998.40,589.50 L 1036.80,600.30 L 1048.00,606.60 L 1051.20,615.60 L 1028.80,635.40 Z"/>
    <path d="M 979.20,661.50 L 924.80,659.70 L 889.60,648.90 L 856.00,630.00 L 833.60,608.40 L 817.60,583.20 L 811.20,565.20 L 811.20,534.60 L 816.00,531.90 L 876.80,521.10 L 992.00,517.50 L 1059.20,522.90 L 1088.00,528.30 L 1108.80,536.40 L 1099.20,585.00 L 1073.60,619.20 L 1044.80,640.80 L 1024.00,650.70 L 979.20,661.50 Z"/>
    <path d="M 1404.80,483.30 L 1353.60,459.90 L 1286.40,445.50 L 1216.00,449.10 L 1177.60,458.10 L 1129.60,476.10 L 1128.00,469.80 L 1150.40,450.00 L 1190.40,431.10 L 1244.80,418.50 L 1299.20,416.70 L 1347.20,423.90 L 1385.60,434.70 L 1457.60,468.00 L 1376.00,454.50 L 1400.00,469.80 L 1404.80,483.30 Z"/>
    <path d="M 512.00,483.30 L 520.00,468.00 L 540.80,454.50 L 459.20,468.00 L 499.20,447.30 L 537.60,432.90 L 569.60,423.90 L 620.80,416.70 L 672.00,418.50 L 726.40,431.10 L 769.60,451.80 L 788.80,469.80 L 784.00,474.30 L 745.60,459.90 L 691.20,447.30 L 633.60,445.50 L 569.60,458.10 L 512.00,483.30 Z"/>
    <path d="M 416.00,431.10 L 411.20,430.20 L 460.80,405.90 L 518.40,393.30 L 608.00,389.70 L 656.00,395.10 L 686.40,403.20 L 633.60,396.90 L 537.60,398.70 L 464.00,413.10 L 416.00,431.10 Z"/>
    <path d="M 1500.80,429.30 L 1430.40,407.70 L 1363.20,396.90 L 1286.40,396.90 L 1224.00,405.00 L 1289.60,391.50 L 1382.40,391.50 L 1456.00,405.90 L 1488.00,418.50 L 1500.80,429.30 Z"/>
    <path d="M 1222.40,407.70 L 1217.60,406.80 L 1222.40,407.70 Z"/>
    <path d="M 1216.00,409.50 L 1211.20,408.60 L 1216.00,409.50 Z"/>
    <path d="M 691.20,405.90 L 686.40,405.00 L 691.20,405.90 Z"/>
    <path d="M 697.60,407.70 L 692.80,406.80 L 697.60,407.70 Z"/>
    <path d="M 704.00,409.50 L 699.20,408.60 L 704.00,409.50 Z"/>
  </g>
</svg>